<svg width="63" height="36" viewBox="0 0 63 36" fill="none" xmlns="http://www.w3.org/2000/svg">
<path d="M3.3519 10.5856C2.92781 11.2972 2.00711 11.5303 1.29547 11.1063C0.583821 10.6822 0.350712 9.76147 0.774802 9.04982L3.3519 10.5856ZM57.3955 34.5494C57.0919 35.3201 56.2209 35.6988 55.4501 35.3952L42.8896 30.4471C42.1188 30.1435 41.7401 29.2725 42.0438 28.5017C42.3474 27.731 43.2184 27.3523 43.9892 27.6559L55.1541 32.0542L59.5524 20.8893C59.856 20.1185 60.727 19.7398 61.4978 20.0434C62.2685 20.3471 62.6472 21.2181 62.3436 21.9888L57.3955 34.5494ZM0.774802 9.04982C5.24454 1.54935 15.8699 -0.962506 26.8401 2.54825C37.927 6.09638 49.7293 15.8153 57.3755 33.4015L54.6243 34.5977C47.2705 17.684 36.0729 8.65289 25.9257 5.4055C15.6617 2.12074 6.81883 4.76788 3.3519 10.5856L0.774802 9.04982Z" fill="#64748B"/>
</svg>
