<svg width="81" height="48" viewBox="0 0 81 48" fill="none" xmlns="http://www.w3.org/2000/svg">
<path d="M79.3601 44.2418C80.1836 44.3322 80.7779 45.073 80.6875 45.8965C80.5972 46.72 79.8564 47.3143 79.0329 47.2239L79.3601 44.2418ZM5.85496 1.40362C6.18417 0.643418 7.06732 0.294039 7.82753 0.62326L20.2157 5.9882C20.9759 6.31742 21.3253 7.20057 20.9961 7.96077C20.6669 8.72097 19.7837 9.07035 19.0235 8.74113L8.01178 3.9723L3.24294 14.984C2.91373 15.7442 2.03058 16.0936 1.27037 15.7644C0.510173 15.4352 0.160793 14.552 0.490013 13.7918L5.85496 1.40362ZM79.0329 47.2239C69.3628 46.1628 54.1633 42.6813 39.8567 35.6681C25.5674 28.6633 11.9598 18.0296 5.8366 2.55153L8.62624 1.44793C14.3593 15.9398 27.2101 26.1275 41.1772 32.9743C55.1271 39.8127 69.982 43.2127 79.3601 44.2418L79.0329 47.2239Z" fill="#64748B"/>
</svg>
