<svg width="86" height="37" viewBox="0 0 86 37" fill="none" xmlns="http://www.w3.org/2000/svg">
<path d="M0.563296 1.81809C0.563297 0.989667 1.23487 0.318095 2.0633 0.318096C2.89173 0.318096 3.5633 0.989669 3.5633 1.8181L0.563296 1.81809ZM84.2197 20.9122C85.0042 21.1783 85.4244 22.03 85.1582 22.8145L80.8209 35.5988C80.5548 36.3833 79.703 36.8035 78.9185 36.5374C78.134 36.2712 77.7138 35.4195 77.98 34.635L81.8353 23.2712L70.4715 19.4158C69.687 19.1497 69.2668 18.2979 69.533 17.5134C69.7991 16.7289 70.6509 16.3087 71.4354 16.5749L84.2197 20.9122ZM3.5633 1.8181C3.5633 9.06751 5.85263 15.1239 9.88702 19.8477C13.9326 24.5847 19.8032 28.0616 27.0774 30.0003C41.6467 33.8832 61.6866 31.539 83.0741 20.9874L84.4014 23.6778C62.5639 34.4515 41.7666 37.0199 26.3048 32.8991C18.5635 30.8359 12.1202 27.0819 7.60577 21.796C3.08012 16.497 0.563295 9.73849 0.563296 1.81809L3.5633 1.8181Z" fill="#64748B"/>
</svg>
