<svg width="87" height="26" viewBox="0 0 87 26" fill="none" xmlns="http://www.w3.org/2000/svg">
<path d="M84.7561 5.15296C85.5695 5.30997 86.3562 4.77785 86.5132 3.96443C86.6702 3.15102 86.1381 2.36434 85.3247 2.20733L84.7561 5.15296ZM1.87479 24.3574C1.96467 25.181 2.70514 25.7757 3.52868 25.6858L16.949 24.2212C17.7725 24.1313 18.3673 23.3908 18.2774 22.5673C18.1875 21.7437 17.447 21.149 16.6235 21.2389L4.69435 22.5408L3.39243 10.6116C3.30255 9.78809 2.56208 9.19334 1.73854 9.28322C0.915007 9.3731 0.320259 10.1136 0.410138 10.9371L1.87479 24.3574ZM85.3247 2.20733C75.7728 0.363567 60.2233 -0.801812 44.4833 1.67061C28.7622 4.14006 12.62 10.2779 2.19647 23.2553L4.53541 25.134C14.2948 12.9834 29.5822 7.04804 44.9488 4.63427C60.2965 2.22348 75.4927 3.36487 84.7561 5.15296L85.3247 2.20733Z" fill="#64748B"/>
</svg>
