<svg width="212" height="71" viewBox="0 0 212 71" fill="none" xmlns="http://www.w3.org/2000/svg">
<g filter="url(#filter0_d_1_1194)">
<rect x="21" width="182" height="40" rx="20" fill="white" shape-rendering="crispEdges"/>
<rect x="21.5" y="0.5" width="181" height="39" rx="19.5" stroke="#E2E8F0" shape-rendering="crispEdges"/>
<path d="M49 30C54.5228 30 59 25.5228 59 20C59 14.4772 54.5228 10 49 10C43.4772 10 39 14.4772 39 20C39 25.5228 43.4772 30 49 30Z" stroke="#154DD7" stroke-width="1.5"/>
<path d="M45.129 19.5977L49.128 14.2079C49.4408 13.7864 50.027 14.0487 50.027 14.6102V18.782C50.027 19.1183 50.2569 19.391 50.5405 19.391H52.4855C52.9274 19.391 53.1629 20.0089 52.871 20.4023L48.872 25.7921C48.5592 26.2136 47.973 25.9513 47.973 25.3898V21.218C47.973 20.8817 47.7431 20.609 47.4595 20.609H45.5145C45.0726 20.609 44.8371 19.9911 45.129 19.5977Z" stroke="#154DD7" stroke-width="1.5" stroke-linecap="round" stroke-linejoin="round"/>
<path d="M70.233 25V14.8182H76.3778V15.9119H71.4659V19.3523H76.0597V20.446H71.4659V23.9062H76.4574V25H70.233ZM72.7585 13.7841L73.9716 11.4773H75.3438L73.7926 13.7841H72.7585ZM79.6143 14.8182V25H78.4411V14.8182H79.6143ZM84.965 25.1591C84.2292 25.1591 83.5945 24.9967 83.0609 24.6719C82.5306 24.3438 82.1213 23.8864 81.8329 23.2997C81.5479 22.7098 81.4054 22.0237 81.4054 21.2415C81.4054 20.4593 81.5479 19.7699 81.8329 19.1733C82.1213 18.5734 82.5223 18.1061 83.036 17.7713C83.5531 17.4332 84.1563 17.2642 84.8457 17.2642C85.2434 17.2642 85.6362 17.3305 86.024 17.4631C86.4118 17.5956 86.7647 17.8111 87.0829 18.1094C87.4011 18.4044 87.6547 18.7955 87.8436 19.2827C88.0325 19.7699 88.127 20.3698 88.127 21.0824V21.5795H82.2406V20.5653H86.9338C86.9338 20.1345 86.8476 19.75 86.6752 19.4119C86.5062 19.0739 86.2643 18.8071 85.9494 18.6115C85.6378 18.416 85.2699 18.3182 84.8457 18.3182C84.3784 18.3182 83.974 18.4342 83.6326 18.6662C83.2946 18.8949 83.0344 19.1932 82.8521 19.5611C82.6698 19.929 82.5787 20.3234 82.5787 20.7443V21.4205C82.5787 21.9972 82.6781 22.486 82.877 22.8871C83.0791 23.2848 83.3592 23.5881 83.7172 23.7969C84.0751 24.0024 84.4911 24.1051 84.965 24.1051C85.2733 24.1051 85.5517 24.062 85.8002 23.9759C86.0521 23.8864 86.2692 23.7538 86.4515 23.5781C86.6338 23.3991 86.7747 23.1771 86.8741 22.9119L88.0076 23.2301C87.8883 23.6146 87.6878 23.9527 87.4061 24.2443C87.1243 24.5327 86.7763 24.758 86.362 24.9205C85.9477 25.0795 85.4821 25.1591 84.965 25.1591ZM93.014 25.1591C92.2981 25.1591 91.6816 24.9901 91.1646 24.652C90.6475 24.3139 90.2498 23.8482 89.9714 23.255C89.693 22.6617 89.5538 21.9839 89.5538 21.2216C89.5538 20.446 89.6963 19.7616 89.9814 19.1683C90.2697 18.5717 90.6708 18.1061 91.1845 17.7713C91.7015 17.4332 92.3047 17.2642 92.9941 17.2642C93.5311 17.2642 94.015 17.3636 94.4458 17.5625C94.8767 17.7614 95.2297 18.0398 95.5048 18.3977C95.7799 18.7557 95.9506 19.1733 96.0169 19.6506H94.8436C94.7541 19.3026 94.5552 18.9943 94.247 18.7259C93.9421 18.4541 93.5311 18.3182 93.014 18.3182C92.5566 18.3182 92.1556 18.4375 91.8109 18.6761C91.4695 18.9115 91.2027 19.2446 91.0105 19.6754C90.8216 20.103 90.7271 20.6051 90.7271 21.1818C90.7271 21.7718 90.8199 22.2855 91.0055 22.723C91.1944 23.1605 91.4596 23.5002 91.801 23.7422C92.1457 23.9841 92.55 24.1051 93.014 24.1051C93.319 24.1051 93.5957 24.0521 93.8443 23.946C94.0929 23.84 94.3033 23.6875 94.4757 23.4886C94.648 23.2898 94.7707 23.0511 94.8436 22.7727H96.0169C95.9506 23.2235 95.7865 23.6295 95.5247 23.9908C95.2662 24.3487 94.9231 24.6338 94.4956 24.8459C94.0713 25.0547 93.5775 25.1591 93.014 25.1591ZM101.053 17.3636V18.358H97.0957V17.3636H101.053ZM98.2491 15.5341H99.4224V22.8125C99.4224 23.1439 99.4705 23.3925 99.5666 23.5582C99.666 23.7206 99.792 23.83 99.9444 23.8864C100.1 23.9394 100.264 23.9659 100.437 23.9659C100.566 23.9659 100.672 23.9593 100.755 23.946C100.838 23.9295 100.904 23.9162 100.954 23.9062L101.192 24.9602C101.113 24.9901 101.002 25.0199 100.859 25.0497C100.717 25.0829 100.536 25.0994 100.317 25.0994C99.9859 25.0994 99.661 25.0282 99.3429 24.8857C99.028 24.7431 98.7662 24.526 98.5574 24.2344C98.3519 23.9427 98.2491 23.5748 98.2491 23.1307V15.5341ZM102.818 25V17.3636H103.952V18.517H104.031C104.17 18.1392 104.422 17.8326 104.787 17.5973C105.151 17.362 105.562 17.2443 106.02 17.2443C106.106 17.2443 106.214 17.246 106.343 17.2493C106.472 17.2526 106.57 17.2576 106.636 17.2642V18.4574C106.596 18.4474 106.505 18.4325 106.363 18.4126C106.224 18.3894 106.076 18.3778 105.92 18.3778C105.549 18.3778 105.218 18.4557 104.926 18.6115C104.638 18.764 104.409 18.9761 104.24 19.2479C104.074 19.5163 103.991 19.8229 103.991 20.1676V25H102.818ZM108.027 25V17.3636H109.2V25H108.027ZM108.624 16.0909C108.395 16.0909 108.198 16.013 108.032 15.8572C107.87 15.7015 107.788 15.5142 107.788 15.2955C107.788 15.0767 107.87 14.8894 108.032 14.7337C108.198 14.5779 108.395 14.5 108.624 14.5C108.852 14.5 109.048 14.5779 109.21 14.7337C109.376 14.8894 109.459 15.0767 109.459 15.2955C109.459 15.5142 109.376 15.7015 109.21 15.8572C109.048 16.013 108.852 16.0909 108.624 16.0909ZM114.452 25.1591C113.736 25.1591 113.119 24.9901 112.602 24.652C112.085 24.3139 111.687 23.8482 111.409 23.255C111.131 22.6617 110.991 21.9839 110.991 21.2216C110.991 20.446 111.134 19.7616 111.419 19.1683C111.707 18.5717 112.108 18.1061 112.622 17.7713C113.139 17.4332 113.742 17.2642 114.432 17.2642C114.969 17.2642 115.452 17.3636 115.883 17.5625C116.314 17.7614 116.667 18.0398 116.942 18.3977C117.217 18.7557 117.388 19.1733 117.454 19.6506H116.281C116.192 19.3026 115.993 18.9943 115.684 18.7259C115.38 18.4541 114.969 18.3182 114.452 18.3182C113.994 18.3182 113.593 18.4375 113.248 18.6761C112.907 18.9115 112.64 19.2446 112.448 19.6754C112.259 20.103 112.165 20.6051 112.165 21.1818C112.165 21.7718 112.257 22.2855 112.443 22.723C112.632 23.1605 112.897 23.5002 113.238 23.7422C113.583 23.9841 113.988 24.1051 114.452 24.1051C114.756 24.1051 115.033 24.0521 115.282 23.946C115.53 23.84 115.741 23.6875 115.913 23.4886C116.086 23.2898 116.208 23.0511 116.281 22.7727H117.454C117.388 23.2235 117.224 23.6295 116.962 23.9908C116.704 24.3487 116.361 24.6338 115.933 24.8459C115.509 25.0547 115.015 25.1591 114.452 25.1591ZM119.17 25V17.3636H120.343V25H119.17ZM119.766 16.0909C119.537 16.0909 119.34 16.013 119.175 15.8572C119.012 15.7015 118.931 15.5142 118.931 15.2955C118.931 15.0767 119.012 14.8894 119.175 14.7337C119.34 14.5779 119.537 14.5 119.766 14.5C119.995 14.5 120.19 14.5779 120.353 14.7337C120.519 14.8894 120.601 15.0767 120.601 15.2955C120.601 15.5142 120.519 15.7015 120.353 15.8572C120.19 16.013 119.995 16.0909 119.766 16.0909ZM125.813 17.3636V18.358H121.855V17.3636H125.813ZM123.009 15.5341H124.182V22.8125C124.182 23.1439 124.23 23.3925 124.326 23.5582C124.426 23.7206 124.552 23.83 124.704 23.8864C124.86 23.9394 125.024 23.9659 125.196 23.9659C125.326 23.9659 125.432 23.9593 125.515 23.946C125.597 23.9295 125.664 23.9162 125.713 23.9062L125.952 24.9602C125.873 24.9901 125.761 25.0199 125.619 25.0497C125.476 25.0829 125.296 25.0994 125.077 25.0994C124.746 25.0994 124.421 25.0282 124.103 24.8857C123.788 24.7431 123.526 24.526 123.317 24.2344C123.112 23.9427 123.009 23.5748 123.009 23.1307V15.5341ZM130.697 25.1591C129.962 25.1591 129.327 24.9967 128.793 24.6719C128.263 24.3438 127.854 23.8864 127.565 23.2997C127.28 22.7098 127.138 22.0237 127.138 21.2415C127.138 20.4593 127.28 19.7699 127.565 19.1733C127.854 18.5734 128.255 18.1061 128.768 17.7713C129.286 17.4332 129.889 17.2642 130.578 17.2642C130.976 17.2642 131.369 17.3305 131.756 17.4631C132.144 17.5956 132.497 17.8111 132.815 18.1094C133.134 18.4044 133.387 18.7955 133.576 19.2827C133.765 19.7699 133.859 20.3698 133.859 21.0824V21.5795H127.973V20.5653H132.666C132.666 20.1345 132.58 19.75 132.408 19.4119C132.239 19.0739 131.997 18.8071 131.682 18.6115C131.37 18.416 131.002 18.3182 130.578 18.3182C130.111 18.3182 129.706 18.4342 129.365 18.6662C129.027 18.8949 128.767 19.1932 128.585 19.5611C128.402 19.929 128.311 20.3234 128.311 20.7443V21.4205C128.311 21.9972 128.411 22.486 128.609 22.8871C128.812 23.2848 129.092 23.5881 129.45 23.7969C129.808 24.0024 130.223 24.1051 130.697 24.1051C131.006 24.1051 131.284 24.062 131.533 23.9759C131.785 23.8864 132.002 23.7538 132.184 23.5781C132.366 23.3991 132.507 23.1771 132.607 22.9119L133.74 23.2301C133.621 23.6146 133.42 23.9527 133.138 24.2443C132.857 24.5327 132.509 24.758 132.094 24.9205C131.68 25.0795 131.214 25.1591 130.697 25.1591ZM129.982 16.3295L131.195 14.0227H132.567L131.016 16.3295H129.982Z" fill="#1E293B"/>
<rect x="143" y="11" width="44" height="18" rx="9" fill="#F1F5F9"/>
<path d="M155.67 19.1676V20.1051H151.852V19.1676H155.67ZM159.997 25.0909V14.1818H160.696V25.0909H159.997ZM162.349 17.4545C162.298 17.0227 162.091 16.6875 161.727 16.4489C161.363 16.2102 160.917 16.0909 160.389 16.0909C160.002 16.0909 159.664 16.1534 159.375 16.2784C159.088 16.4034 158.863 16.5753 158.701 16.794C158.542 17.0128 158.463 17.2614 158.463 17.5398C158.463 17.7727 158.518 17.973 158.629 18.1406C158.743 18.3054 158.887 18.4432 159.064 18.554C159.24 18.6619 159.424 18.7514 159.618 18.8224C159.811 18.8906 159.988 18.946 160.15 18.9886L161.037 19.2273C161.264 19.2869 161.517 19.3693 161.795 19.4744C162.076 19.5795 162.345 19.723 162.6 19.9048C162.859 20.0838 163.072 20.3139 163.24 20.5952C163.407 20.8764 163.491 21.2216 163.491 21.6307C163.491 22.1023 163.368 22.5284 163.12 22.9091C162.876 23.2898 162.518 23.5923 162.047 23.8168C161.578 24.0412 161.008 24.1534 160.338 24.1534C159.713 24.1534 159.172 24.0526 158.714 23.8509C158.26 23.6491 157.902 23.3679 157.64 23.0071C157.382 22.6463 157.235 22.2273 157.201 21.75H158.292C158.321 22.0795 158.431 22.3523 158.625 22.5682C158.821 22.7812 159.068 22.9403 159.366 23.0455C159.667 23.1477 159.991 23.1989 160.338 23.1989C160.741 23.1989 161.103 23.1335 161.424 23.0028C161.745 22.8693 162 22.6847 162.187 22.4489C162.375 22.2102 162.468 21.9318 162.468 21.6136C162.468 21.3239 162.387 21.0881 162.225 20.9062C162.064 20.7244 161.85 20.5767 161.586 20.4631C161.322 20.3494 161.037 20.25 160.73 20.1648L159.656 19.858C158.974 19.6619 158.434 19.3821 158.037 19.0185C157.639 18.6548 157.44 18.179 157.44 17.5909C157.44 17.1023 157.572 16.6761 157.836 16.3125C158.103 15.946 158.461 15.6619 158.91 15.4602C159.362 15.2557 159.866 15.1534 160.423 15.1534C160.985 15.1534 161.485 15.2543 161.923 15.456C162.36 15.6548 162.707 15.9276 162.963 16.2741C163.221 16.6207 163.358 17.0142 163.372 17.4545H162.349ZM165.075 24V23.233L167.956 20.0795C168.294 19.7102 168.572 19.3892 168.791 19.1165C169.01 18.8409 169.172 18.5824 169.277 18.3409C169.385 18.0966 169.439 17.8409 169.439 17.5739C169.439 17.267 169.365 17.0014 169.217 16.777C169.072 16.5526 168.874 16.3793 168.621 16.2571C168.368 16.1349 168.084 16.0739 167.768 16.0739C167.433 16.0739 167.141 16.1435 166.891 16.2827C166.643 16.419 166.452 16.6108 166.315 16.858C166.182 17.1051 166.115 17.3949 166.115 17.7273H165.109C165.109 17.2159 165.227 16.767 165.463 16.3807C165.699 15.9943 166.02 15.6932 166.426 15.4773C166.835 15.2614 167.294 15.1534 167.803 15.1534C168.314 15.1534 168.767 15.2614 169.162 15.4773C169.557 15.6932 169.866 15.9844 170.091 16.3509C170.315 16.7173 170.428 17.125 170.428 17.5739C170.428 17.8949 170.369 18.2088 170.253 18.5156C170.139 18.8196 169.94 19.1591 169.656 19.5341C169.375 19.9062 168.984 20.3608 168.484 20.8977L166.524 22.9943V23.0625H170.581V24H165.075ZM175.068 24.1193C174.568 24.1193 174.118 24.0199 173.717 23.821C173.317 23.6222 172.996 23.3494 172.754 23.0028C172.513 22.6562 172.381 22.2614 172.358 21.8182H173.381C173.42 22.2131 173.599 22.5398 173.918 22.7983C174.239 23.054 174.622 23.1818 175.068 23.1818C175.426 23.1818 175.744 23.098 176.023 22.9304C176.304 22.7628 176.524 22.5327 176.683 22.2401C176.845 21.9446 176.926 21.6108 176.926 21.2386C176.926 20.858 176.842 20.5185 176.675 20.2202C176.51 19.919 176.283 19.6818 175.993 19.5085C175.703 19.3352 175.372 19.2472 175 19.2443C174.733 19.2415 174.459 19.2827 174.178 19.3679C173.896 19.4503 173.665 19.5568 173.483 19.6875L172.494 19.5682L173.023 15.2727H177.557V16.2102H173.909L173.602 18.7841H173.653C173.832 18.642 174.057 18.5241 174.327 18.4304C174.597 18.3366 174.878 18.2898 175.17 18.2898C175.705 18.2898 176.18 18.4176 176.598 18.6733C177.018 18.9261 177.348 19.2727 177.587 19.7131C177.828 20.1534 177.949 20.6562 177.949 21.2216C177.949 21.7784 177.824 22.2756 177.574 22.7131C177.327 23.1477 176.986 23.4915 176.551 23.7443C176.116 23.9943 175.622 24.1193 175.068 24.1193Z" fill="#0F172A"/>
</g>
<defs>
<filter id="filter0_d_1_1194" x="0.4" y="0" width="211.2" height="70.6" filterUnits="userSpaceOnUse" color-interpolation-filters="sRGB">
<feFlood flood-opacity="0" result="BackgroundImageFix"/>
<feColorMatrix in="SourceAlpha" type="matrix" values="0 0 0 0 0 0 0 0 0 0 0 0 0 0 0 0 0 0 127 0" result="hardAlpha"/>
<feMorphology radius="1" operator="dilate" in="SourceAlpha" result="effect1_dropShadow_1_1194"/>
<feOffset dx="-6" dy="16"/>
<feGaussianBlur stdDeviation="6.8"/>
<feComposite in2="hardAlpha" operator="out"/>
<feColorMatrix type="matrix" values="0 0 0 0 0.392157 0 0 0 0 0.454902 0 0 0 0 0.545098 0 0 0 0.08 0"/>
<feBlend mode="multiply" in2="BackgroundImageFix" result="effect1_dropShadow_1_1194"/>
<feBlend mode="normal" in="SourceGraphic" in2="effect1_dropShadow_1_1194" result="shape"/>
</filter>
</defs>
</svg>
