<svg width="1668" height="1035" viewBox="0 0 1668 1035" fill="none" xmlns="http://www.w3.org/2000/svg">
<path d="M440.269 30.0857C324.847 -25.0827 203.092 8.3771 114.181 41.2006C25.2699 74.0242 -3.36667 277.592 1.27013 439.02C5.73245 594.374 40.1298 687.83 127.27 816.52C377.307 1185.78 1088 976 1267.5 964C1447 952 1633.5 902.5 1658.77 816.52C1684.04 730.54 1656.27 687.653 1566.3 629.314C1453.84 556.389 1116.74 552.281 1052.55 549.121C988.35 545.962 871.125 469.357 832.42 404.404C793.714 339.451 823.319 215.825 811.368 152.442C799.416 89.0585 723.253 68.312 688.146 68.3172C653.039 68.3225 584.545 99.0461 440.269 30.0857Z" fill="#0A3295" fill-opacity="0.03"/>
</svg>
