<svg width="62" height="62" viewBox="0 0 62 62" fill="none" xmlns="http://www.w3.org/2000/svg">
<path d="M15.2043 60.0682C25.5762 62.6439 36.4216 62.6439 46.7963 60.0682C53.3379 58.4452 58.4449 53.3381 60.0678 46.7963C62.6435 36.4242 62.6435 25.5785 60.0678 15.2037C58.4449 8.6619 53.3379 3.55477 46.7963 1.93179C36.4244 -0.643929 25.5789 -0.643929 15.2043 1.93179C8.66267 3.55477 3.55566 8.6619 1.93272 15.2037C-0.642938 25.5758 -0.642938 36.4215 1.93272 46.7963C3.55566 53.3381 8.66267 58.4452 15.2043 60.0682Z" fill="#154DD7"/>
<path d="M17.7367 50.4993H44.266C46.5924 50.4993 48.4812 48.6132 48.4812 46.284V29.6775C48.4812 26.9356 45.9056 24.925 43.244 25.5897L16.7147 32.2228C14.8398 32.6909 13.5215 34.3775 13.5215 36.3107V46.284C13.5215 48.6105 15.4075 50.4993 17.7367 50.4993Z" fill="url(#paint0_linear_2065_32367)"/>
<path d="M17.7369 50.4993H26.7877C29.1141 50.4993 31.0029 48.6132 31.0029 46.284V15.7216C31.0029 12.5892 27.7072 10.5507 24.9044 11.9522L15.8536 16.4777C14.4245 17.1922 13.5244 18.6518 13.5244 20.2471V46.284C13.5244 48.6104 15.4105 50.4993 17.7396 50.4993H17.7369Z" fill="url(#paint1_linear_2065_32367)"/>
<g style="mix-blend-mode:soft-light">
<path d="M55.7257 54.8032C55.5733 54.9639 55.421 55.1245 55.2714 55.2741C52.97 57.5756 50.062 59.2512 46.7912 60.071C36.4248 62.6412 25.5766 62.6412 15.1992 60.071C11.9284 59.254 9.02035 57.5756 6.71887 55.2741C4.4174 52.9808 2.74183 50.0645 1.93036 46.7936C0.639761 41.6006 0 36.2996 0 30.9986C0 25.6976 0.639761 20.3967 1.93036 15.2037C2.73906 11.9328 4.4174 9.01642 6.71887 6.7232C6.8712 6.57087 7.03183 6.41854 7.1897 6.26898L55.7229 54.8032H55.7257Z" fill="url(#paint2_linear_2065_32367)"/>
</g>
<defs>
<linearGradient id="paint0_linear_2065_32367" x1="44.7645" y1="51.7456" x2="20.5528" y2="27.5344" gradientUnits="userSpaceOnUse">
<stop stop-color="white"/>
<stop offset="1" stop-color="white" stop-opacity="0"/>
</linearGradient>
<linearGradient id="paint1_linear_2065_32367" x1="35.1433" y1="43.8855" x2="9.46094" y2="18.2037" gradientUnits="userSpaceOnUse">
<stop stop-color="white"/>
<stop offset="1" stop-color="white" stop-opacity="0"/>
</linearGradient>
<linearGradient id="paint2_linear_2065_32367" x1="7.12876" y1="54.8669" x2="35.8078" y2="26.1885" gradientUnits="userSpaceOnUse">
<stop stop-color="white"/>
<stop offset="1" stop-color="white" stop-opacity="0"/>
</linearGradient>
</defs>
</svg>
