<svg width="274" height="274" viewBox="0 0 274 274" fill="none" xmlns="http://www.w3.org/2000/svg">
<g opacity="0.04" filter="url(#filter0_f_2101_1700)">
<circle cx="137" cy="137" r="127" fill="#154DD7"/>
</g>
<g style="mix-blend-mode:multiply" opacity="0.05" filter="url(#filter1_b_2101_1700)">
<circle cx="137" cy="137" r="95" fill="#154DD7"/>
</g>
<g opacity="0.47">
<path d="M115.6 176.383C129.652 179.872 144.346 179.872 158.402 176.383C167.265 174.184 174.184 167.265 176.383 158.401C179.872 144.349 179.872 129.655 176.383 115.599C174.184 106.735 167.265 99.8161 158.402 97.6173C144.35 94.1276 129.656 94.1276 115.6 97.6173C106.737 99.8161 99.818 106.735 97.6192 115.599C94.1296 129.651 94.1296 144.345 97.6192 158.401C99.818 167.265 106.737 174.184 115.6 176.383Z" fill="#154DD7"/>
<path d="M119.029 163.418H154.972C158.124 163.418 160.683 160.863 160.683 157.707V135.208C160.683 131.493 157.194 128.769 153.588 129.67L117.645 138.657C115.104 139.291 113.318 141.576 113.318 144.195V157.707C113.318 160.859 115.874 163.418 119.029 163.418Z" fill="url(#paint0_linear_2101_1700)"/>
<path d="M119.029 163.418H131.292C134.444 163.418 137.003 160.863 137.003 157.707V116.3C137.003 112.056 132.538 109.295 128.74 111.193L116.478 117.325C114.542 118.293 113.322 120.27 113.322 122.432V157.707C113.322 160.859 115.878 163.418 119.033 163.418H119.029Z" fill="url(#paint1_linear_2101_1700)"/>
<g style="mix-blend-mode:soft-light">
<path d="M170.499 169.249C170.293 169.467 170.087 169.685 169.884 169.887C166.766 173.006 162.826 175.276 158.394 176.386C144.35 179.869 129.652 179.869 115.592 176.386C111.161 175.28 107.221 173.006 104.103 169.887C100.985 166.78 98.7147 162.829 97.6153 158.398C95.8668 151.362 95 144.18 95 136.998C95 129.816 95.8668 122.634 97.6153 115.598C98.711 111.167 100.985 107.216 104.103 104.109C104.309 103.902 104.527 103.696 104.741 103.493L170.496 169.249H170.499Z" fill="url(#paint2_linear_2101_1700)"/>
</g>
</g>
<defs>
<filter id="filter0_f_2101_1700" x="0.1" y="0.1" width="273.8" height="273.8" filterUnits="userSpaceOnUse" color-interpolation-filters="sRGB">
<feFlood flood-opacity="0" result="BackgroundImageFix"/>
<feBlend mode="normal" in="SourceGraphic" in2="BackgroundImageFix" result="shape"/>
<feGaussianBlur stdDeviation="4.95" result="effect1_foregroundBlur_2101_1700"/>
</filter>
<filter id="filter1_b_2101_1700" x="19.1" y="19.1" width="235.8" height="235.8" filterUnits="userSpaceOnUse" color-interpolation-filters="sRGB">
<feFlood flood-opacity="0" result="BackgroundImageFix"/>
<feGaussianBlur in="BackgroundImageFix" stdDeviation="11.45"/>
<feComposite in2="SourceAlpha" operator="in" result="effect1_backgroundBlur_2101_1700"/>
<feBlend mode="normal" in="SourceGraphic" in2="effect1_backgroundBlur_2101_1700" result="shape"/>
</filter>
<linearGradient id="paint0_linear_2101_1700" x1="155.648" y1="165.107" x2="122.845" y2="132.305" gradientUnits="userSpaceOnUse">
<stop stop-color="white"/>
<stop offset="1" stop-color="white" stop-opacity="0"/>
</linearGradient>
<linearGradient id="paint1_linear_2101_1700" x1="142.612" y1="154.458" x2="107.817" y2="119.663" gradientUnits="userSpaceOnUse">
<stop stop-color="white"/>
<stop offset="1" stop-color="white" stop-opacity="0"/>
</linearGradient>
<linearGradient id="paint2_linear_2101_1700" x1="104.658" y1="169.336" x2="143.514" y2="130.481" gradientUnits="userSpaceOnUse">
<stop stop-color="white"/>
<stop offset="1" stop-color="white" stop-opacity="0"/>
</linearGradient>
</defs>
</svg>
