<svg width="24" height="24" viewBox="0 0 24 24" fill="none" xmlns="http://www.w3.org/2000/svg">
<g clip-path="url(#clip0_2100_880)">
<path d="M19.149 0.000976562H4.847C2.169 0.000976562 0 2.16998 0 4.84898V19.154C0 21.83 2.169 23.999 4.847 23.999H19.152C21.828 23.999 23.999 21.83 23.999 19.152V4.84898C23.997 2.16998 21.828 0.000976562 19.149 0.000976562ZM6.635 19.001C6.335 19.526 5.666 19.703 5.141 19.403C4.616 19.103 4.439 18.434 4.739 17.909L5.519 16.559C6.401 16.286 7.117 16.496 7.685 17.18L6.635 19.001ZM14.218 16.056H4.29C3.684 16.056 3.198 15.57 3.198 14.964C3.198 14.358 3.684 13.872 4.29 13.872H7.073L10.637 7.69598L9.524 5.76398C9.224 5.23898 9.401 4.57598 9.926 4.26998C10.451 3.96998 11.114 4.14698 11.42 4.67198L11.897 5.51498L12.383 4.67498C12.683 4.14998 13.352 3.97298 13.877 4.27298C14.402 4.57298 14.579 5.24198 14.279 5.76598L9.597 13.871H12.984C14.08 13.872 14.695 15.162 14.218 16.056ZM19.567 16.062H17.989L19.054 17.909C19.354 18.434 19.177 19.097 18.652 19.403C18.127 19.703 17.464 19.526 17.158 19.001C15.365 15.89 14.017 13.563 13.124 12.012C12.209 10.434 12.863 8.84998 13.508 8.31298C14.225 9.54298 15.296 11.4 16.726 13.878H19.567C20.173 13.878 20.659 14.364 20.659 14.97C20.658 15.576 20.173 16.062 19.567 16.062Z" fill="#151A2D"/>
</g>
<defs>
<clipPath id="clip0_2100_880">
<rect width="24" height="24" fill="white"/>
</clipPath>
</defs>
</svg>
