<svg width="49" height="48" viewBox="0 0 49 48" fill="none" xmlns="http://www.w3.org/2000/svg">
<g clip-path="url(#clip0_2003_104429)">
<rect x="0.5" width="48" height="48" rx="24" fill="#DAEBFF"/>
<rect x="0.5" width="48" height="48" rx="24" stroke="#EEF6FF" stroke-width="8"/>
<path fill-rule="evenodd" clip-rule="evenodd" d="M15.25 14.75C15.25 14.3358 15.5858 14 16 14H28C28.4142 14 28.75 14.3358 28.75 14.75C28.75 15.1642 28.4142 15.5 28 15.5V18.5H34C34.4142 18.5 34.75 18.8358 34.75 19.25C34.75 19.6642 34.4142 20 34 20V32H34.75C35.1642 32 35.5 32.3358 35.5 32.75C35.5 33.1642 35.1642 33.5 34.75 33.5H15.25C14.8358 33.5 14.5 33.1642 14.5 32.75C14.5 32.3358 14.8358 32 15.25 32H16V15.5C15.5858 15.5 15.25 15.1642 15.25 14.75ZM17.5 15.5V32H19V29.375C19 28.3395 19.8395 27.5 20.875 27.5H23.125C24.1605 27.5 25 28.3395 25 29.375V32H26.5V15.5H17.5ZM28 20V32H32.5V20H28ZM23.5 32V29.375C23.5 29.1679 23.3321 29 23.125 29H20.875C20.6679 29 20.5 29.1679 20.5 29.375V32H23.5ZM19 18.5C19 18.0858 19.3358 17.75 19.75 17.75H20.5C20.9142 17.75 21.25 18.0858 21.25 18.5C21.25 18.9142 20.9142 19.25 20.5 19.25H19.75C19.3358 19.25 19 18.9142 19 18.5ZM22.75 18.5C22.75 18.0858 23.0858 17.75 23.5 17.75H24.25C24.6642 17.75 25 18.0858 25 18.5C25 18.9142 24.6642 19.25 24.25 19.25H23.5C23.0858 19.25 22.75 18.9142 22.75 18.5ZM19 21.5C19 21.0858 19.3358 20.75 19.75 20.75H20.5C20.9142 20.75 21.25 21.0858 21.25 21.5C21.25 21.9142 20.9142 22.25 20.5 22.25H19.75C19.3358 22.25 19 21.9142 19 21.5ZM22.75 21.5C22.75 21.0858 23.0858 20.75 23.5 20.75H24.25C24.6642 20.75 25 21.0858 25 21.5C25 21.9142 24.6642 22.25 24.25 22.25H23.5C23.0858 22.25 22.75 21.9142 22.75 21.5ZM29.5 23C29.5 22.5858 29.8358 22.25 30.25 22.25H30.2575C30.6717 22.25 31.0075 22.5858 31.0075 23V23.0075C31.0075 23.4217 30.6717 23.7575 30.2575 23.7575H30.25C29.8358 23.7575 29.5 23.4217 29.5 23.0075V23ZM19 24.5C19 24.0858 19.3358 23.75 19.75 23.75H20.5C20.9142 23.75 21.25 24.0858 21.25 24.5C21.25 24.9142 20.9142 25.25 20.5 25.25H19.75C19.3358 25.25 19 24.9142 19 24.5ZM22.75 24.5C22.75 24.0858 23.0858 23.75 23.5 23.75H24.25C24.6642 23.75 25 24.0858 25 24.5C25 24.9142 24.6642 25.25 24.25 25.25H23.5C23.0858 25.25 22.75 24.9142 22.75 24.5ZM29.5 26C29.5 25.5858 29.8358 25.25 30.25 25.25H30.2575C30.6717 25.25 31.0075 25.5858 31.0075 26V26.0075C31.0075 26.4217 30.6717 26.7575 30.2575 26.7575H30.25C29.8358 26.7575 29.5 26.4217 29.5 26.0075V26ZM29.5 29C29.5 28.5858 29.8358 28.25 30.25 28.25H30.2575C30.6717 28.25 31.0075 28.5858 31.0075 29V29.0075C31.0075 29.4217 30.6717 29.7575 30.2575 29.7575H30.25C29.8358 29.7575 29.5 29.4217 29.5 29.0075V29Z" fill="#7E49FF"/>
</g>
<defs>
<clipPath id="clip0_2003_104429">
<rect width="48" height="48" fill="white" transform="translate(0.5)"/>
</clipPath>
</defs>
</svg>
