<svg width="48" height="48" viewBox="0 0 48 48" fill="none" xmlns="http://www.w3.org/2000/svg">
<g clip-path="url(#clip0_2052_33235)">
<rect width="48" height="48" rx="24" fill="#DAEBFF"/>
<rect width="48" height="48" rx="24" stroke="#E2E8F0" stroke-width="8"/>
<path fill-rule="evenodd" clip-rule="evenodd" d="M16.4131 14.4082C18.4877 14.1389 20.603 14 22.7503 14C24.8974 14 27.0124 14.1389 29.0869 14.4082C31.0953 14.6689 32.5 16.4166 32.5 18.3873V19.7736C33.4113 20.2832 34 21.2669 34 22.3582V26.6438C34 28.1515 32.872 29.4585 31.3307 29.5842C31.2206 29.5932 31.1103 29.6018 31 29.6101V32C31 32.3033 30.8173 32.5768 30.537 32.6929C30.2568 32.809 29.9342 32.7448 29.7197 32.5303L26.9384 29.749C25.67 29.7412 24.4131 29.6857 23.1692 29.5841C22.9677 29.5677 22.7724 29.5307 22.5853 29.4753L18.7803 33.2803C18.5658 33.4948 18.2432 33.559 17.963 33.4429C17.6827 33.3268 17.5 33.0533 17.5 32.75V28.7205C17.1365 28.6816 16.7742 28.6387 16.4131 28.5918C14.4047 28.331 13 26.5833 13 24.6126V18.3874C13 16.4167 14.4047 14.669 16.4131 14.4082ZM21.2807 28.6587C20.7913 28.1255 20.5 27.412 20.5 26.6437V22.3582C20.5 20.8528 21.6248 19.5466 23.1641 19.4188C24.5114 19.307 25.8741 19.25 27.25 19.25C28.5116 19.25 29.7622 19.2979 31 19.3921V18.3873C31 17.1152 30.1012 16.0524 28.8938 15.8957C26.8832 15.6347 24.8327 15.5 22.7503 15.5C20.6677 15.5 18.617 15.6347 16.6062 15.8957C15.3988 16.0525 14.5 17.1152 14.5 18.3874V24.6126C14.5 25.8848 15.3988 26.9475 16.6062 27.1043C17.1742 27.178 17.7453 27.2417 18.3194 27.295C18.7051 27.3309 19 27.6545 19 28.0418V30.9393L21.2807 28.6587ZM27.25 20.75C25.9156 20.75 24.5942 20.8053 23.2881 20.9137C22.5652 20.9737 22 21.5936 22 22.3582V26.6437C22 27.2048 22.3079 27.6934 22.7577 27.9332C22.9175 28.0184 23.0969 28.0732 23.2912 28.0891C24.5963 28.1956 25.9166 28.25 27.25 28.25C27.4489 28.25 27.6397 28.329 27.7803 28.4697L29.5 30.1893V28.9092C29.5 28.5127 29.8087 28.1847 30.2046 28.1606C30.5403 28.1403 30.875 28.1164 31.2087 28.0892C31.9332 28.0301 32.5 27.4094 32.5 26.6438V22.3582C32.5 21.7074 32.0872 21.1574 31.5203 20.975C31.423 20.9437 31.3199 20.9227 31.2119 20.9137C29.9058 20.8053 28.5844 20.75 27.25 20.75Z" fill="#154DD7"/>
</g>
<defs>
<clipPath id="clip0_2052_33235">
<rect width="48" height="48" fill="white"/>
</clipPath>
</defs>
</svg>
