<svg width="56" height="56" viewBox="0 0 56 56" fill="none" xmlns="http://www.w3.org/2000/svg">
<rect x="4" y="4" width="48" height="48" rx="24" fill="white"/>
<rect x="4" y="4" width="48" height="48" rx="24" stroke="white" stroke-width="8"/>
<path fill-rule="evenodd" clip-rule="evenodd" d="M20.4131 18.4082C22.4877 18.1389 24.603 18 26.7503 18C28.8974 18 31.0124 18.1389 33.0869 18.4082C35.0953 18.6689 36.5 20.4166 36.5 22.3873V23.7736C37.4113 24.2832 38 25.2669 38 26.3582V30.6438C38 32.1515 36.872 33.4585 35.3307 33.5842C35.2206 33.5932 35.1103 33.6018 35 33.6101V36C35 36.3033 34.8173 36.5768 34.537 36.6929C34.2568 36.809 33.9342 36.7448 33.7197 36.5303L30.9384 33.749C29.67 33.7412 28.4131 33.6857 27.1692 33.5841C26.9677 33.5677 26.7724 33.5307 26.5853 33.4753L22.7803 37.2803C22.5658 37.4948 22.2432 37.559 21.963 37.4429C21.6827 37.3268 21.5 37.0533 21.5 36.75V32.7205C21.1365 32.6816 20.7742 32.6387 20.4131 32.5918C18.4047 32.331 17 30.5833 17 28.6126V22.3874C17 20.4167 18.4047 18.669 20.4131 18.4082ZM25.2807 32.6587C24.7913 32.1255 24.5 31.412 24.5 30.6437V26.3582C24.5 24.8528 25.6248 23.5466 27.1641 23.4188C28.5114 23.307 29.8741 23.25 31.25 23.25C32.5116 23.25 33.7622 23.2979 35 23.3921V22.3873C35 21.1152 34.1012 20.0524 32.8938 19.8957C30.8832 19.6347 28.8327 19.5 26.7503 19.5C24.6677 19.5 22.617 19.6347 20.6062 19.8957C19.3988 20.0525 18.5 21.1152 18.5 22.3874V28.6126C18.5 29.8848 19.3988 30.9475 20.6062 31.1043C21.1742 31.178 21.7453 31.2417 22.3194 31.295C22.7051 31.3309 23 31.6545 23 32.0418V34.9393L25.2807 32.6587ZM31.25 24.75C29.9156 24.75 28.5942 24.8053 27.2881 24.9137C26.5652 24.9737 26 25.5936 26 26.3582V30.6437C26 31.2048 26.3079 31.6934 26.7577 31.9332C26.9175 32.0184 27.0969 32.0732 27.2912 32.0891C28.5963 32.1956 29.9166 32.25 31.25 32.25C31.4489 32.25 31.6397 32.329 31.7803 32.4697L33.5 34.1893V32.9092C33.5 32.5127 33.8087 32.1847 34.2046 32.1606C34.5403 32.1403 34.875 32.1164 35.2087 32.0892C35.9332 32.0301 36.5 31.4094 36.5 30.6438V26.3582C36.5 25.7074 36.0872 25.1574 35.5203 24.975C35.423 24.9437 35.3199 24.9227 35.2119 24.9137C33.9058 24.8053 32.5844 24.75 31.25 24.75Z" fill="#154DD7"/>
</svg>
