<svg width="56" height="56" viewBox="0 0 56 56" fill="none" xmlns="http://www.w3.org/2000/svg">
<rect x="4" y="4" width="48" height="48" rx="24" fill="white"/>
<rect x="4" y="4" width="48" height="48" rx="24" stroke="white" stroke-width="8"/>
<path fill-rule="evenodd" clip-rule="evenodd" d="M18.75 18.75C18.75 18.3358 19.0858 18 19.5 18H31.5C31.9142 18 32.25 18.3358 32.25 18.75C32.25 19.1642 31.9142 19.5 31.5 19.5V22.5H37.5C37.9142 22.5 38.25 22.8358 38.25 23.25C38.25 23.6642 37.9142 24 37.5 24V36H38.25C38.6642 36 39 36.3358 39 36.75C39 37.1642 38.6642 37.5 38.25 37.5H18.75C18.3358 37.5 18 37.1642 18 36.75C18 36.3358 18.3358 36 18.75 36H19.5V19.5C19.0858 19.5 18.75 19.1642 18.75 18.75ZM21 19.5V36H22.5V33.375C22.5 32.3395 23.3395 31.5 24.375 31.5H26.625C27.6605 31.5 28.5 32.3395 28.5 33.375V36H30V19.5H21ZM31.5 24V36H36V24H31.5ZM27 36V33.375C27 33.1679 26.8321 33 26.625 33H24.375C24.1679 33 24 33.1679 24 33.375V36H27ZM22.5 22.5C22.5 22.0858 22.8358 21.75 23.25 21.75H24C24.4142 21.75 24.75 22.0858 24.75 22.5C24.75 22.9142 24.4142 23.25 24 23.25H23.25C22.8358 23.25 22.5 22.9142 22.5 22.5ZM26.25 22.5C26.25 22.0858 26.5858 21.75 27 21.75H27.75C28.1642 21.75 28.5 22.0858 28.5 22.5C28.5 22.9142 28.1642 23.25 27.75 23.25H27C26.5858 23.25 26.25 22.9142 26.25 22.5ZM22.5 25.5C22.5 25.0858 22.8358 24.75 23.25 24.75H24C24.4142 24.75 24.75 25.0858 24.75 25.5C24.75 25.9142 24.4142 26.25 24 26.25H23.25C22.8358 26.25 22.5 25.9142 22.5 25.5ZM26.25 25.5C26.25 25.0858 26.5858 24.75 27 24.75H27.75C28.1642 24.75 28.5 25.0858 28.5 25.5C28.5 25.9142 28.1642 26.25 27.75 26.25H27C26.5858 26.25 26.25 25.9142 26.25 25.5ZM33 27C33 26.5858 33.3358 26.25 33.75 26.25H33.7575C34.1717 26.25 34.5075 26.5858 34.5075 27V27.0075C34.5075 27.4217 34.1717 27.7575 33.7575 27.7575H33.75C33.3358 27.7575 33 27.4217 33 27.0075V27ZM22.5 28.5C22.5 28.0858 22.8358 27.75 23.25 27.75H24C24.4142 27.75 24.75 28.0858 24.75 28.5C24.75 28.9142 24.4142 29.25 24 29.25H23.25C22.8358 29.25 22.5 28.9142 22.5 28.5ZM26.25 28.5C26.25 28.0858 26.5858 27.75 27 27.75H27.75C28.1642 27.75 28.5 28.0858 28.5 28.5C28.5 28.9142 28.1642 29.25 27.75 29.25H27C26.5858 29.25 26.25 28.9142 26.25 28.5ZM33 30C33 29.5858 33.3358 29.25 33.75 29.25H33.7575C34.1717 29.25 34.5075 29.5858 34.5075 30V30.0075C34.5075 30.4217 34.1717 30.7575 33.7575 30.7575H33.75C33.3358 30.7575 33 30.4217 33 30.0075V30ZM33 33C33 32.5858 33.3358 32.25 33.75 32.25H33.7575C34.1717 32.25 34.5075 32.5858 34.5075 33V33.0075C34.5075 33.4217 34.1717 33.7575 33.7575 33.7575H33.75C33.3358 33.7575 33 33.4217 33 33.0075V33Z" fill="#154DD7"/>
</svg>
