<svg width="56" height="56" viewBox="0 0 56 56" fill="none" xmlns="http://www.w3.org/2000/svg">
<rect x="4" y="4" width="48" height="48" rx="24" fill="#DAEBFF"/>
<rect x="4" y="4" width="48" height="48" rx="24" stroke="#EEF6FF" stroke-width="8"/>
<path fill-rule="evenodd" clip-rule="evenodd" d="M27.2343 18.2054C27.5235 17.9315 27.9765 17.9315 28.2657 18.2054C30.2825 20.1154 33.0038 21.2858 36 21.2858C36.0477 21.2858 36.0953 21.2855 36.1428 21.2849C36.4702 21.2808 36.7623 21.4895 36.8646 21.8006C37.2771 23.0553 37.5 24.3953 37.5 25.7858C37.5 31.7278 33.4359 36.7187 27.9369 38.1341C27.8143 38.1656 27.6857 38.1656 27.5631 38.1341C22.0641 36.7187 18 31.7278 18 25.7858C18 24.3953 18.2229 23.0553 18.6354 21.8006C18.7377 21.4895 19.0298 21.2808 19.3572 21.2849C19.4047 21.2855 19.4523 21.2858 19.5 21.2858C22.4962 21.2858 25.2175 20.1154 27.2343 18.2054ZM19.906 22.7794C19.6415 23.7357 19.5 24.7437 19.5 25.7858C19.5 30.9593 22.9928 35.3188 27.75 36.6316C32.5072 35.3188 36 30.9593 36 25.7858C36 24.7437 35.8585 23.7357 35.594 22.7794C32.6066 22.6859 29.8772 21.5641 27.75 19.7572C25.6228 21.5641 22.8934 22.6859 19.906 22.7794ZM31.1859 25.1754C31.523 25.4162 31.6011 25.8846 31.3603 26.2217L27.6103 31.4717C27.4822 31.6511 27.2816 31.765 27.0619 31.7832C26.8421 31.8014 26.6256 31.722 26.4697 31.5661L24.2197 29.3161C23.9268 29.0232 23.9268 28.5483 24.2197 28.2554C24.5126 27.9625 24.9874 27.9625 25.2803 28.2554L26.9043 29.8794L30.1397 25.3498C30.3805 25.0127 30.8489 24.9347 31.1859 25.1754Z" fill="#1E293B"/>
</svg>
