<svg width="78" height="86" viewBox="0 0 78 86" fill="none" xmlns="http://www.w3.org/2000/svg">
<g filter="url(#filter0_d_2060_31747)">
<circle cx="45.1012" cy="31.101" r="24" transform="rotate(21.3952 45.1012 31.101)" fill="white"/>
</g>
<path fill-rule="evenodd" clip-rule="evenodd" d="M50.3621 24.525C49.7781 24.19 49.0614 24.291 48.5924 24.7287C48.4861 24.828 48.3919 24.9452 48.3147 25.0799L52.2182 27.3187C52.2955 27.1839 52.3491 27.0435 52.3811 26.9016C52.5221 26.2757 52.2473 25.6062 51.6633 25.2712L50.3621 24.525ZM47.9935 23.3022C48.9049 22.7174 50.1029 22.6471 51.1084 23.2238L52.4096 23.97C53.415 24.5467 53.9593 25.6161 53.9148 26.6981C54.102 26.8234 54.2881 26.9498 54.4731 27.0773C55.7448 27.9539 56.0707 29.6466 55.3217 30.9525L50.1518 39.967C49.3275 41.4042 47.4942 41.9011 46.0569 41.0769L44.7557 40.3306L44.196 41.3065C43.6809 42.2048 42.535 42.5154 41.6367 42.0002L33.179 37.1495C32.2807 36.6344 31.9701 35.4885 32.4853 34.5902L38.0822 24.8313C38.5974 23.933 39.7432 23.6224 40.6415 24.1376L42.9186 25.4435L43.611 24.2362C44.3599 22.9303 45.9855 22.3568 47.3843 23.0118C47.5878 23.1071 47.7908 23.2038 47.9935 23.3022ZM46.9469 24.4638C46.8807 24.4325 46.8145 24.4013 46.7482 24.3702C46.0913 24.0627 45.2926 24.3192 44.9122 24.9825L44.2198 26.1898L49.0992 28.9882C49.9975 29.5034 50.3081 30.6493 49.7929 31.5475L45.502 39.0294L46.8032 39.7757C47.5218 40.1878 48.4385 39.9394 48.8506 39.2207L54.0205 30.2062C54.4009 29.543 54.219 28.724 53.6218 28.3123C53.5615 28.2708 53.5012 28.2294 53.4407 28.1881C52.999 28.8108 52.1479 29.0075 51.472 28.6199L47.5684 26.3811C46.8925 25.9935 46.6325 25.1595 46.9469 24.4638ZM39.8952 25.4388C39.7156 25.3358 39.4864 25.3979 39.3834 25.5775L33.7865 35.3365C33.6834 35.5161 33.7456 35.7453 33.9252 35.8483L42.383 40.699C42.5626 40.802 42.7918 40.7399 42.8948 40.5602L48.4917 30.8013C48.5948 30.6216 48.5327 30.3925 48.353 30.2894L39.8952 25.4388ZM44.5349 32.6121C44.6868 32.9975 44.4975 33.433 44.1121 33.5849L39.6441 35.3453C39.4456 35.4235 39.2232 35.4135 39.0326 35.3178C38.8419 35.2221 38.7011 35.0497 38.6452 34.8438L38.0903 32.7963C37.9819 32.3965 38.2182 31.9846 38.618 31.8762C39.0178 31.7679 39.4297 32.0041 39.5381 32.4039L39.8738 33.6426L43.5622 32.1893C43.9476 32.0374 44.3831 32.2268 44.5349 32.6121Z" fill="#154DD7"/>
<defs>
<filter id="filter0_d_2060_31747" x="0.494726" y="7.09448" width="77.2127" height="78.6129" filterUnits="userSpaceOnUse" color-interpolation-filters="sRGB">
<feFlood flood-opacity="0" result="BackgroundImageFix"/>
<feColorMatrix in="SourceAlpha" type="matrix" values="0 0 0 0 0 0 0 0 0 0 0 0 0 0 0 0 0 0 127 0" result="hardAlpha"/>
<feMorphology radius="1" operator="dilate" in="SourceAlpha" result="effect1_dropShadow_2060_31747"/>
<feOffset dx="-6" dy="16"/>
<feGaussianBlur stdDeviation="6.8"/>
<feComposite in2="hardAlpha" operator="out"/>
<feColorMatrix type="matrix" values="0 0 0 0 0.392157 0 0 0 0 0.454902 0 0 0 0 0.545098 0 0 0 0.08 0"/>
<feBlend mode="multiply" in2="BackgroundImageFix" result="effect1_dropShadow_2060_31747"/>
<feBlend mode="normal" in="SourceGraphic" in2="effect1_dropShadow_2060_31747" result="shape"/>
</filter>
</defs>
</svg>
