<svg width="56" height="56" viewBox="0 0 56 56" fill="none" xmlns="http://www.w3.org/2000/svg">
<rect x="4" y="4" width="48" height="48" rx="24" fill="white"/>
<rect x="4" y="4" width="48" height="48" rx="24" stroke="white" stroke-width="8"/>
<path fill-rule="evenodd" clip-rule="evenodd" d="M29.5 18.5C28.8267 18.5 28.2552 18.9441 28.0662 19.5572C28.0234 19.6962 28 19.8447 28 20H32.5C32.5 19.8447 32.4766 19.6962 32.4338 19.5572C32.2448 18.9441 31.6733 18.5 31 18.5H29.5ZM26.837 18.6176C27.3367 17.6569 28.3409 17 29.5 17H31C32.1591 17 33.1633 17.6569 33.663 18.6176C33.8877 18.6332 34.1121 18.6503 34.3359 18.6688C35.8752 18.7966 37 20.1028 37 21.6082V32C37 33.6569 35.6569 35 34 35H32.5V36.125C32.5 37.1605 31.6605 38 30.625 38H20.875C19.8395 38 19 37.1605 19 36.125V24.875C19 23.8395 19.8395 23 20.875 23H23.5V21.6082C23.5 20.1028 24.6248 18.7966 26.164 18.6688C26.3879 18.6503 26.6123 18.6332 26.837 18.6176ZM26.507 20.146C26.434 20.1518 26.361 20.1577 26.2881 20.1637C25.5652 20.2237 25 20.8437 25 21.6082V23H30.625C31.6605 23 32.5 23.8395 32.5 24.875V33.5H34C34.8284 33.5 35.5 32.8284 35.5 32V21.6082C35.5 20.8436 34.9348 20.2237 34.2119 20.1637C34.139 20.1577 34.066 20.1518 33.993 20.146C33.9196 20.9059 33.2792 21.5 32.5 21.5H28C27.2208 21.5 26.5804 20.9059 26.507 20.146ZM20.875 24.5C20.6679 24.5 20.5 24.6679 20.5 24.875V36.125C20.5 36.3321 20.6679 36.5 20.875 36.5H30.625C30.8321 36.5 31 36.3321 31 36.125V24.875C31 24.6679 30.8321 24.5 30.625 24.5H20.875ZM28.4685 28.4143C28.792 28.6731 28.8444 29.1451 28.5857 29.4685L25.5857 33.2185C25.4524 33.3851 25.2545 33.4871 25.0415 33.4989C24.8285 33.5106 24.6205 33.4312 24.4697 33.2803L22.9697 31.7803C22.6768 31.4874 22.6768 31.0126 22.9697 30.7197C23.2626 30.4268 23.7374 30.4268 24.0303 30.7197L24.9378 31.6272L27.4143 28.5315C27.6731 28.208 28.1451 28.1556 28.4685 28.4143Z" fill="#154DD7"/>
</svg>
