<svg width="49" height="48" viewBox="0 0 49 48" fill="none" xmlns="http://www.w3.org/2000/svg">
<g clip-path="url(#clip0_2003_104419)">
<rect x="0.5" width="48" height="48" rx="24" fill="#DAEBFF"/>
<rect x="0.5" width="48" height="48" rx="24" stroke="#EEF6FF" stroke-width="8"/>
<path fill-rule="evenodd" clip-rule="evenodd" d="M24.25 15.5C23.236 15.5 22.3393 16.0023 21.7951 16.775C21.6281 17.0121 21.3394 17.1317 21.0537 17.0821C20.1225 16.9205 19.1332 17.1994 18.4162 17.9164C17.6992 18.6334 17.4204 19.6226 17.5819 20.5539C17.6315 20.8396 17.5119 21.1283 17.2749 21.2952C16.5022 21.8395 16 22.7361 16 23.75C16 24.7638 16.5022 25.6604 17.2748 26.2047C17.5119 26.3717 17.6314 26.6604 17.5818 26.9461C17.4201 27.8774 17.699 28.8668 18.416 29.5838C19.1331 30.3008 20.1225 30.5797 21.0538 30.418C21.3395 30.3684 21.6282 30.488 21.7952 30.7251C22.3394 31.4977 23.2361 32 24.25 32C25.2639 32 26.1606 31.4977 26.7048 30.725C26.8718 30.4879 27.1605 30.3684 27.4462 30.4179C28.3773 30.5794 29.3665 30.3005 30.0834 29.5836C30.8003 28.8667 31.0792 27.8775 30.9177 26.9463C30.8681 26.6606 30.9877 26.3719 31.2248 26.205C31.9976 25.6608 32.5 24.764 32.5 23.75C32.5 22.7362 31.9978 21.8396 31.2252 21.2953C30.9882 21.1283 30.8686 20.8396 30.9182 20.5539C31.0799 19.6226 30.801 18.6333 30.084 17.9162C29.3669 17.1992 28.3776 16.9203 27.4463 17.082C27.1605 17.1316 26.8718 17.012 26.7048 16.7749C26.1606 16.0023 25.2639 15.5 24.25 15.5ZM20.8529 15.5488C21.6771 14.6009 22.8933 14 24.25 14C25.6066 14 26.8228 14.6009 27.647 15.5486C28.9001 15.4611 30.1852 15.8962 31.1446 16.8556C32.104 17.815 32.5391 19.1001 32.4516 20.3532C33.3992 21.1774 34 22.3935 34 23.75C34 25.1068 33.399 26.3231 32.4511 27.1473C32.5384 28.4002 32.1033 29.685 31.1441 30.6443C30.1848 31.6035 28.9 32.0386 27.6471 31.9513C26.8229 32.8991 25.6067 33.5 24.25 33.5C22.8934 33.5 21.6772 32.8991 20.853 31.9514C19.5999 32.039 18.3148 31.6039 17.3554 30.6445C16.396 29.685 15.9609 28.3999 16.0484 27.1468C15.1008 26.3227 14.5 25.1065 14.5 23.75C14.5 22.3934 15.1008 21.1772 16.0486 20.3531C15.9611 19.1001 16.3962 17.8151 17.3555 16.8557C18.3149 15.8964 19.5999 15.4613 20.8529 15.5488ZM27.6859 20.8897C28.023 21.1305 28.1011 21.5989 27.8603 21.9359L24.1103 27.1859C23.9822 27.3653 23.7816 27.4793 23.5619 27.4974C23.3421 27.5156 23.1256 27.4362 22.9697 27.2803L20.7197 25.0303C20.4268 24.7374 20.4268 24.2626 20.7197 23.9697C21.0126 23.6768 21.4874 23.6768 21.7803 23.9697L23.4043 25.5936L26.6397 21.0641C26.8805 20.727 27.3489 20.6489 27.6859 20.8897Z" fill="#1E293B"/>
</g>
<defs>
<clipPath id="clip0_2003_104419">
<rect width="48" height="48" fill="white" transform="translate(0.5)"/>
</clipPath>
</defs>
</svg>
